<mxfile host="app.diagrams.net" modified="2024-01-24T02:10:24.435Z" agent="Mozilla/5.0 (Windows NT 10.0; Win64; x64) AppleWebKit/537.36 (KHTML, like Gecko) Chrome/120.0.0.0 Safari/537.36" etag="hJve9pUUcDMFYgUeZh6C" version="22.1.18" type="device">
  <diagram name="Page-1" id="V5G3YPWQqb1Y58x9Fygc">
    <mxGraphModel dx="1290" dy="623" grid="1" gridSize="10" guides="1" tooltips="1" connect="1" arrows="1" fold="1" page="1" pageScale="1" pageWidth="850" pageHeight="1100" math="0" shadow="0">
      <root>
        <mxCell id="0" />
        <mxCell id="1" parent="0" />
        <mxCell id="ryKG2g28ckteExbV3JMA-9" style="edgeStyle=orthogonalEdgeStyle;rounded=0;orthogonalLoop=1;jettySize=auto;html=1;exitX=0;exitY=0.25;exitDx=0;exitDy=0;entryX=0.5;entryY=0;entryDx=0;entryDy=0;" edge="1" parent="1" source="ryKG2g28ckteExbV3JMA-2" target="ryKG2g28ckteExbV3JMA-4">
          <mxGeometry relative="1" as="geometry" />
        </mxCell>
        <mxCell id="ryKG2g28ckteExbV3JMA-2" value="0.0" style="swimlane;whiteSpace=wrap;html=1;" vertex="1" parent="1">
          <mxGeometry x="730" y="750" width="205" height="200" as="geometry" />
        </mxCell>
        <mxCell id="ryKG2g28ckteExbV3JMA-3" value="&lt;font style=&quot;font-size: 18px;&quot;&gt;Bank Interest Tracker&lt;/font&gt;" style="text;html=1;align=center;verticalAlign=middle;resizable=0;points=[];autosize=1;strokeColor=none;fillColor=none;" vertex="1" parent="ryKG2g28ckteExbV3JMA-2">
          <mxGeometry x="7.5" y="95" width="190" height="40" as="geometry" />
        </mxCell>
        <mxCell id="ryKG2g28ckteExbV3JMA-4" value="Admin" style="rounded=0;whiteSpace=wrap;html=1;" vertex="1" parent="1">
          <mxGeometry x="360" y="830" width="120" height="60" as="geometry" />
        </mxCell>
        <mxCell id="ryKG2g28ckteExbV3JMA-5" value="User" style="rounded=0;whiteSpace=wrap;html=1;" vertex="1" parent="1">
          <mxGeometry x="1240" y="830" width="120" height="60" as="geometry" />
        </mxCell>
        <mxCell id="ryKG2g28ckteExbV3JMA-6" style="edgeStyle=orthogonalEdgeStyle;rounded=0;orthogonalLoop=1;jettySize=auto;html=1;exitX=0.25;exitY=0;exitDx=0;exitDy=0;entryX=0.049;entryY=0;entryDx=0;entryDy=0;entryPerimeter=0;" edge="1" parent="1" source="ryKG2g28ckteExbV3JMA-4" target="ryKG2g28ckteExbV3JMA-2">
          <mxGeometry relative="1" as="geometry" />
        </mxCell>
        <mxCell id="ryKG2g28ckteExbV3JMA-7" value="User login request" style="text;html=1;align=center;verticalAlign=middle;resizable=0;points=[];autosize=1;strokeColor=none;fillColor=none;" vertex="1" parent="1">
          <mxGeometry x="460" y="700" width="120" height="30" as="geometry" />
        </mxCell>
        <mxCell id="ryKG2g28ckteExbV3JMA-10" value="User login response" style="text;html=1;align=center;verticalAlign=middle;resizable=0;points=[];autosize=1;strokeColor=none;fillColor=none;" vertex="1" parent="1">
          <mxGeometry x="465" y="770" width="130" height="30" as="geometry" />
        </mxCell>
        <mxCell id="ryKG2g28ckteExbV3JMA-11" value="" style="endArrow=classic;html=1;rounded=0;" edge="1" parent="1">
          <mxGeometry width="50" height="50" relative="1" as="geometry">
            <mxPoint x="730" y="859.5" as="sourcePoint" />
            <mxPoint x="480" y="859.5" as="targetPoint" />
          </mxGeometry>
        </mxCell>
        <mxCell id="ryKG2g28ckteExbV3JMA-12" value="" style="endArrow=classic;html=1;rounded=0;exitX=1;exitY=0;exitDx=0;exitDy=0;" edge="1" parent="1" source="ryKG2g28ckteExbV3JMA-4">
          <mxGeometry width="50" height="50" relative="1" as="geometry">
            <mxPoint x="730" y="840" as="sourcePoint" />
            <mxPoint x="730" y="830" as="targetPoint" />
          </mxGeometry>
        </mxCell>
        <mxCell id="ryKG2g28ckteExbV3JMA-13" value="User request bank details" style="text;html=1;align=center;verticalAlign=middle;resizable=0;points=[];autosize=1;strokeColor=none;fillColor=none;" vertex="1" parent="1">
          <mxGeometry x="510" y="800" width="160" height="30" as="geometry" />
        </mxCell>
        <mxCell id="ryKG2g28ckteExbV3JMA-14" value="Bank details response" style="text;html=1;align=center;verticalAlign=middle;resizable=0;points=[];autosize=1;strokeColor=none;fillColor=none;" vertex="1" parent="1">
          <mxGeometry x="520" y="830" width="140" height="30" as="geometry" />
        </mxCell>
        <mxCell id="ryKG2g28ckteExbV3JMA-15" value="" style="endArrow=classic;html=1;rounded=0;exitX=1;exitY=0;exitDx=0;exitDy=0;" edge="1" parent="1">
          <mxGeometry width="50" height="50" relative="1" as="geometry">
            <mxPoint x="480" y="889" as="sourcePoint" />
            <mxPoint x="730" y="889" as="targetPoint" />
          </mxGeometry>
        </mxCell>
        <mxCell id="ryKG2g28ckteExbV3JMA-18" value="User edit bank details" style="text;html=1;align=center;verticalAlign=middle;resizable=0;points=[];autosize=1;strokeColor=none;fillColor=none;" vertex="1" parent="1">
          <mxGeometry x="520" y="860" width="140" height="30" as="geometry" />
        </mxCell>
        <mxCell id="ryKG2g28ckteExbV3JMA-24" value="" style="endArrow=classic;html=1;rounded=0;exitX=0.5;exitY=1;exitDx=0;exitDy=0;" edge="1" parent="1" source="ryKG2g28ckteExbV3JMA-4">
          <mxGeometry width="50" height="50" relative="1" as="geometry">
            <mxPoint x="160" y="930" as="sourcePoint" />
            <mxPoint x="730" y="920" as="targetPoint" />
            <Array as="points">
              <mxPoint x="420" y="920" />
            </Array>
          </mxGeometry>
        </mxCell>
        <mxCell id="ryKG2g28ckteExbV3JMA-25" value="" style="endArrow=classic;html=1;rounded=0;exitX=0.333;exitY=1;exitDx=0;exitDy=0;exitPerimeter=0;entryX=0;entryY=1;entryDx=0;entryDy=0;" edge="1" parent="1" source="ryKG2g28ckteExbV3JMA-4" target="ryKG2g28ckteExbV3JMA-2">
          <mxGeometry width="50" height="50" relative="1" as="geometry">
            <mxPoint x="400" y="920" as="sourcePoint" />
            <mxPoint x="710" y="950" as="targetPoint" />
            <Array as="points">
              <mxPoint x="400" y="950" />
            </Array>
          </mxGeometry>
        </mxCell>
        <mxCell id="ryKG2g28ckteExbV3JMA-26" value="User create new bank details" style="text;html=1;align=center;verticalAlign=middle;resizable=0;points=[];autosize=1;strokeColor=none;fillColor=none;" vertex="1" parent="1">
          <mxGeometry x="500" y="890" width="180" height="30" as="geometry" />
        </mxCell>
        <mxCell id="ryKG2g28ckteExbV3JMA-27" value="User delete bank details" style="text;html=1;align=center;verticalAlign=middle;resizable=0;points=[];autosize=1;strokeColor=none;fillColor=none;" vertex="1" parent="1">
          <mxGeometry x="505" y="920" width="150" height="30" as="geometry" />
        </mxCell>
        <mxCell id="ryKG2g28ckteExbV3JMA-30" value="" style="endArrow=classic;html=1;rounded=0;exitX=1;exitY=0;exitDx=0;exitDy=0;" edge="1" parent="1" source="ryKG2g28ckteExbV3JMA-5">
          <mxGeometry width="50" height="50" relative="1" as="geometry">
            <mxPoint x="1230" y="780" as="sourcePoint" />
            <mxPoint x="790" y="750" as="targetPoint" />
            <Array as="points">
              <mxPoint x="1360" y="650" />
              <mxPoint x="790" y="650" />
            </Array>
          </mxGeometry>
        </mxCell>
        <mxCell id="ryKG2g28ckteExbV3JMA-32" value="" style="endArrow=classic;html=1;rounded=0;entryX=0.683;entryY=-0.023;entryDx=0;entryDy=0;entryPerimeter=0;" edge="1" parent="1" target="ryKG2g28ckteExbV3JMA-5">
          <mxGeometry width="50" height="50" relative="1" as="geometry">
            <mxPoint x="834.2094117647058" y="750" as="sourcePoint" />
            <mxPoint x="1323" y="820" as="targetPoint" />
            <Array as="points">
              <mxPoint x="833.18" y="680" />
              <mxPoint x="1323.18" y="680" />
            </Array>
          </mxGeometry>
        </mxCell>
        <mxCell id="ryKG2g28ckteExbV3JMA-34" value="User register request" style="text;html=1;align=center;verticalAlign=middle;resizable=0;points=[];autosize=1;strokeColor=none;fillColor=none;" vertex="1" parent="1">
          <mxGeometry x="1010" y="620" width="140" height="30" as="geometry" />
        </mxCell>
        <mxCell id="ryKG2g28ckteExbV3JMA-35" value="User register response" style="text;html=1;align=center;verticalAlign=middle;resizable=0;points=[];autosize=1;strokeColor=none;fillColor=none;" vertex="1" parent="1">
          <mxGeometry x="1010" y="650" width="140" height="30" as="geometry" />
        </mxCell>
        <mxCell id="ryKG2g28ckteExbV3JMA-36" value="" style="endArrow=classic;html=1;rounded=0;" edge="1" parent="1">
          <mxGeometry width="50" height="50" relative="1" as="geometry">
            <mxPoint x="1282" y="830" as="sourcePoint" />
            <mxPoint x="880" y="750" as="targetPoint" />
            <Array as="points">
              <mxPoint x="1280" y="710" />
              <mxPoint x="880" y="710" />
            </Array>
          </mxGeometry>
        </mxCell>
        <mxCell id="ryKG2g28ckteExbV3JMA-37" value="" style="endArrow=classic;html=1;rounded=0;entryX=0;entryY=0;entryDx=0;entryDy=0;exitX=0.976;exitY=0;exitDx=0;exitDy=0;exitPerimeter=0;" edge="1" parent="1" source="ryKG2g28ckteExbV3JMA-2" target="ryKG2g28ckteExbV3JMA-5">
          <mxGeometry width="50" height="50" relative="1" as="geometry">
            <mxPoint x="940" y="750" as="sourcePoint" />
            <mxPoint x="1390" y="740" as="targetPoint" />
            <Array as="points">
              <mxPoint x="1240" y="750" />
            </Array>
          </mxGeometry>
        </mxCell>
        <mxCell id="ryKG2g28ckteExbV3JMA-38" value="User login request" style="text;html=1;align=center;verticalAlign=middle;resizable=0;points=[];autosize=1;strokeColor=none;fillColor=none;" vertex="1" parent="1">
          <mxGeometry x="1020" y="680" width="120" height="30" as="geometry" />
        </mxCell>
        <mxCell id="ryKG2g28ckteExbV3JMA-39" value="User login response" style="text;html=1;align=center;verticalAlign=middle;resizable=0;points=[];autosize=1;strokeColor=none;fillColor=none;" vertex="1" parent="1">
          <mxGeometry x="1020" y="720" width="130" height="30" as="geometry" />
        </mxCell>
        <mxCell id="ryKG2g28ckteExbV3JMA-41" value="" style="endArrow=classic;html=1;rounded=0;entryX=0;entryY=0;entryDx=0;entryDy=0;" edge="1" parent="1" target="ryKG2g28ckteExbV3JMA-5">
          <mxGeometry width="50" height="50" relative="1" as="geometry">
            <mxPoint x="940" y="830" as="sourcePoint" />
            <mxPoint x="990" y="780" as="targetPoint" />
          </mxGeometry>
        </mxCell>
        <mxCell id="ryKG2g28ckteExbV3JMA-42" value="Bank detail response" style="text;html=1;align=center;verticalAlign=middle;resizable=0;points=[];autosize=1;strokeColor=none;fillColor=none;" vertex="1" parent="1">
          <mxGeometry x="1025" y="800" width="140" height="30" as="geometry" />
        </mxCell>
        <mxCell id="ryKG2g28ckteExbV3JMA-43" value="" style="endArrow=classic;html=1;rounded=0;entryX=0;entryY=0;entryDx=0;entryDy=0;exitX=0;exitY=0.5;exitDx=0;exitDy=0;" edge="1" parent="1" source="ryKG2g28ckteExbV3JMA-5">
          <mxGeometry width="50" height="50" relative="1" as="geometry">
            <mxPoint x="1235" y="859" as="sourcePoint" />
            <mxPoint x="935" y="859" as="targetPoint" />
          </mxGeometry>
        </mxCell>
        <mxCell id="ryKG2g28ckteExbV3JMA-44" value="" style="endArrow=classic;html=1;rounded=0;entryX=0;entryY=0;entryDx=0;entryDy=0;exitX=0;exitY=0.5;exitDx=0;exitDy=0;" edge="1" parent="1">
          <mxGeometry width="50" height="50" relative="1" as="geometry">
            <mxPoint x="1240" y="890" as="sourcePoint" />
            <mxPoint x="935" y="889" as="targetPoint" />
          </mxGeometry>
        </mxCell>
        <mxCell id="ryKG2g28ckteExbV3JMA-45" value="User bookmarks bank details" style="text;html=1;align=center;verticalAlign=middle;resizable=0;points=[];autosize=1;strokeColor=none;fillColor=none;" vertex="1" parent="1">
          <mxGeometry x="1005" y="830" width="180" height="30" as="geometry" />
        </mxCell>
        <mxCell id="ryKG2g28ckteExbV3JMA-46" value="User removes bookmark" style="text;html=1;align=center;verticalAlign=middle;resizable=0;points=[];autosize=1;strokeColor=none;fillColor=none;" vertex="1" parent="1">
          <mxGeometry x="1015" y="860" width="150" height="30" as="geometry" />
        </mxCell>
        <mxCell id="ryKG2g28ckteExbV3JMA-47" value="" style="endArrow=classic;html=1;rounded=0;entryX=0;entryY=0;entryDx=0;entryDy=0;exitX=0.15;exitY=1.057;exitDx=0;exitDy=0;exitPerimeter=0;" edge="1" parent="1" source="ryKG2g28ckteExbV3JMA-5">
          <mxGeometry width="50" height="50" relative="1" as="geometry">
            <mxPoint x="1420" y="920" as="sourcePoint" />
            <mxPoint x="935" y="920" as="targetPoint" />
            <Array as="points">
              <mxPoint x="1258" y="920" />
            </Array>
          </mxGeometry>
        </mxCell>
        <mxCell id="ryKG2g28ckteExbV3JMA-48" value="User calculates interest rate" style="text;html=1;align=center;verticalAlign=middle;resizable=0;points=[];autosize=1;strokeColor=none;fillColor=none;" vertex="1" parent="1">
          <mxGeometry x="1005" y="890" width="170" height="30" as="geometry" />
        </mxCell>
        <mxCell id="ryKG2g28ckteExbV3JMA-49" value="" style="endArrow=classic;html=1;rounded=0;entryX=0.33;entryY=1.043;entryDx=0;entryDy=0;entryPerimeter=0;exitX=0.33;exitY=1.043;exitDx=0;exitDy=0;exitPerimeter=0;" edge="1" parent="1" source="ryKG2g28ckteExbV3JMA-5">
          <mxGeometry width="50" height="50" relative="1" as="geometry">
            <mxPoint x="1340" y="1000" as="sourcePoint" />
            <mxPoint x="920" y="950" as="targetPoint" />
            <Array as="points">
              <mxPoint x="1280" y="1000" />
              <mxPoint x="920" y="1000" />
            </Array>
          </mxGeometry>
        </mxCell>
        <mxCell id="ryKG2g28ckteExbV3JMA-50" value="" style="endArrow=classic;html=1;rounded=0;entryX=0.33;entryY=1.043;entryDx=0;entryDy=0;entryPerimeter=0;exitX=0.33;exitY=1.043;exitDx=0;exitDy=0;exitPerimeter=0;" edge="1" parent="1">
          <mxGeometry width="50" height="50" relative="1" as="geometry">
            <mxPoint x="1280" y="893" as="sourcePoint" />
            <mxPoint x="920" y="950" as="targetPoint" />
            <Array as="points">
              <mxPoint x="1280" y="1000" />
              <mxPoint x="920" y="1000" />
            </Array>
          </mxGeometry>
        </mxCell>
        <mxCell id="ryKG2g28ckteExbV3JMA-51" value="" style="endArrow=classic;html=1;rounded=0;exitX=0.677;exitY=1.017;exitDx=0;exitDy=0;exitPerimeter=0;entryX=0.677;entryY=1.017;entryDx=0;entryDy=0;entryPerimeter=0;" edge="1" parent="1" target="ryKG2g28ckteExbV3JMA-5">
          <mxGeometry width="50" height="50" relative="1" as="geometry">
            <mxPoint x="870" y="950" as="sourcePoint" />
            <mxPoint x="1230" y="930" as="targetPoint" />
            <Array as="points">
              <mxPoint x="870" y="1037" />
              <mxPoint x="1320" y="1037" />
            </Array>
          </mxGeometry>
        </mxCell>
        <mxCell id="ryKG2g28ckteExbV3JMA-52" value="User request interest rate history" style="text;html=1;align=center;verticalAlign=middle;resizable=0;points=[];autosize=1;strokeColor=none;fillColor=none;" vertex="1" parent="1">
          <mxGeometry x="995" y="970" width="200" height="30" as="geometry" />
        </mxCell>
        <mxCell id="ryKG2g28ckteExbV3JMA-53" value="Response to interest rate history" style="text;html=1;align=center;verticalAlign=middle;resizable=0;points=[];autosize=1;strokeColor=none;fillColor=none;" vertex="1" parent="1">
          <mxGeometry x="990" y="1010" width="200" height="30" as="geometry" />
        </mxCell>
      </root>
    </mxGraphModel>
  </diagram>
</mxfile>
